<?xml version="1.0" standalone="no"?><!DOCTYPE svg PUBLIC "-//W3C//DTD SVG 1.1//EN" "http://www.w3.org/Graphics/SVG/1.1/DTD/svg11.dtd"><svg t="1544538216321" class="icon" style="" viewBox="0 0 1024 1024" version="1.1" xmlns="http://www.w3.org/2000/svg" p-id="6445" xmlns:xlink="http://www.w3.org/1999/xlink" width="256" height="256"><defs><style type="text/css">@font-face { font-weight: 400; font-style: normal; font-family: Inter-Loom; src: url("https://cdn.useloom.com/assets/fonts/inter/Inter-UI-Regular.woff2") format("woff2"); }
@font-face { font-weight: 400; font-style: italic; font-family: Inter-Loom; src: url("https://cdn.useloom.com/assets/fonts/inter/Inter-UI-Italic.woff2") format("woff2"); }
@font-face { font-weight: 500; font-style: normal; font-family: Inter-Loom; src: url("https://cdn.useloom.com/assets/fonts/inter/Inter-UI-Medium.woff2") format("woff2"); }
@font-face { font-weight: 500; font-style: italic; font-family: Inter-Loom; src: url("https://cdn.useloom.com/assets/fonts/inter/Inter-UI-MediumItalic.woff2") format("woff2"); }
@font-face { font-weight: 700; font-style: normal; font-family: Inter-Loom; src: url("https://cdn.useloom.com/assets/fonts/inter/Inter-UI-Bold.woff2") format("woff2"); }
@font-face { font-weight: 700; font-style: italic; font-family: Inter-Loom; src: url("https://cdn.useloom.com/assets/fonts/inter/Inter-UI-BoldItalic.woff2") format("woff2"); }
@font-face { font-weight: 900; font-style: normal; font-family: Inter-Loom; src: url("https://cdn.useloom.com/assets/fonts/inter/Inter-UI-Black.woff2") format("woff2"); }
@font-face { font-weight: 900; font-style: italic; font-family: Inter-Loom; src: url("https://cdn.useloom.com/assets/fonts/inter/Inter-UI-BlackItalic.woff2") format("woff2"); }
</style></defs><path d="M512 64C264.576 64 64 264.577 64 512s200.576 448 448 448 448-200.576 448-448S759.424 64 512 64zM512 896c-212.078 0-384-171.923-384-384 0-212.077 171.922-384 384-384 212.077 0 384 171.923 384 384C896 724.077 724.077 896 512 896z" p-id="6446" fill="#1B73FB"></path><path d="M703.001 717 592.013 568.412l1.164-0.124C657.479 547.539 704 487.207 704 416c0-88.366-71.634-160-160-160L416 256c-17.673 0-32 14.327-32 32l0 448c0 17.673 14.327 32 32 32s32-14.327 32-32L448 576l68.889 0 134.912 179.399c10.604 14.139 30.661 17.004 44.799 6.4C710.739 751.196 713.604 731.138 703.001 717zM448 512 448 320l96 0c53.02 0 96 42.98 96 96s-42.98 96-96 96L448 512z" p-id="6447" fill="#1B73FB"></path></svg>