<?xml version="1.0" standalone="no"?><!DOCTYPE svg PUBLIC "-//W3C//DTD SVG 1.1//EN" "http://www.w3.org/Graphics/SVG/1.1/DTD/svg11.dtd"><svg t="1542814991661" class="icon" style="" viewBox="0 0 1228 1024" version="1.1" xmlns="http://www.w3.org/2000/svg" p-id="1967" xmlns:xlink="http://www.w3.org/1999/xlink" width="614" height="512"><defs><style type="text/css"></style></defs><path d="M1024 901.12l-819.3536 0.3072a40.8576 40.8576 0 0 0 0 81.6128H1024a40.96 40.96 0 0 0 0-81.92m81.92-573.44a40.96 40.96 0 1 1 0-81.92 40.96 40.96 0 0 1 0 81.92z m-139.264 409.6H263.8848L210.2272 435.6608l98.2016 76.6976c8.96 6.912 18.688 12.6976 29.0304 17.3056 70.4512 31.0784 152.8832 12.4928 184.064-57.8048L614.4 264.0896l86.1696 193.4848c4.5568 10.2912 10.5984 19.968 17.3056 28.928 45.7728 61.3376 141.6704 72.96 202.5984 25.856l100.4032-76.6976L966.656 737.28zM81.92 286.72a40.96 40.96 0 1 1 81.92 0 40.96 40.96 0 0 1-81.92 0z m532.48-204.8a40.96 40.96 0 1 1 0 81.92 40.96 40.96 0 0 1 0-81.92z m368.64 204.8c0 22.4256 6.4512 43.2128 16.9984 61.3376-2.2528 1.3312-4.5568 2.4576-6.656 4.096l-115.712 89.4464a69.888 69.888 0 0 1-106.496-26.8288l-85.2992-192.256A122.4704 122.4704 0 0 0 737.28 122.88a122.88 122.88 0 1 0-245.76 0c0 41.1136 20.3776 77.312 51.456 99.6352L457.728 414.72a69.8368 69.8368 0 0 1-106.496 26.88L235.3664 352.1024c-2.0992-1.5872-4.4032-2.816-6.656-4.096A121.856 121.856 0 0 0 245.76 286.72 122.88 122.88 0 1 0 122.88 409.6c0.512 3.072 0.512 6.2464 1.024 9.3696l64.512 371.3536a34.816 34.816 0 0 0 34.304 28.8768h783.36a34.816 34.816 0 0 0 34.304-28.8768l64.512-371.3536c0.512-3.1232 0.512-6.2464 0.6656-9.4208A122.88 122.88 0 1 0 983.04 286.72z" p-id="1968" fill="#2F54EB"></path></svg>