<?xml version="1.0" standalone="no"?><!DOCTYPE svg PUBLIC "-//W3C//DTD SVG 1.1//EN" "http://www.w3.org/Graphics/SVG/1.1/DTD/svg11.dtd"><svg t="1543404879646" class="icon" style="" viewBox="0 0 1024 1024" version="1.1" xmlns="http://www.w3.org/2000/svg" p-id="4436" xmlns:xlink="http://www.w3.org/1999/xlink" width="256" height="256"><defs><style type="text/css">@font-face { font-weight: 400; font-style: normal; font-family: Inter-Loom; src: url("https://cdn.useloom.com/assets/fonts/inter/Inter-UI-Regular.woff2") format("woff2"); }
@font-face { font-weight: 400; font-style: italic; font-family: Inter-Loom; src: url("https://cdn.useloom.com/assets/fonts/inter/Inter-UI-Italic.woff2") format("woff2"); }
@font-face { font-weight: 500; font-style: normal; font-family: Inter-Loom; src: url("https://cdn.useloom.com/assets/fonts/inter/Inter-UI-Medium.woff2") format("woff2"); }
@font-face { font-weight: 500; font-style: italic; font-family: Inter-Loom; src: url("https://cdn.useloom.com/assets/fonts/inter/Inter-UI-MediumItalic.woff2") format("woff2"); }
@font-face { font-weight: 700; font-style: normal; font-family: Inter-Loom; src: url("https://cdn.useloom.com/assets/fonts/inter/Inter-UI-Bold.woff2") format("woff2"); }
@font-face { font-weight: 700; font-style: italic; font-family: Inter-Loom; src: url("https://cdn.useloom.com/assets/fonts/inter/Inter-UI-BoldItalic.woff2") format("woff2"); }
@font-face { font-weight: 900; font-style: normal; font-family: Inter-Loom; src: url("https://cdn.useloom.com/assets/fonts/inter/Inter-UI-Black.woff2") format("woff2"); }
@font-face { font-weight: 900; font-style: italic; font-family: Inter-Loom; src: url("https://cdn.useloom.com/assets/fonts/inter/Inter-UI-BlackItalic.woff2") format("woff2"); }
</style></defs><path d="M510.677888 71.702042c-241.887073 0-438.685227 196.810435-438.685227 438.69853s196.798155 438.69853 438.685227 438.69853 438.69853-196.810435 438.69853-438.69853S752.564961 71.702042 510.677888 71.702042zM510.677888 923.412071c-227.727585 0-412.999219-185.271634-412.999219-413.011498S282.950304 97.388051 510.677888 97.388051c227.739864 0 413.011498 185.271634 413.011498 413.011498S738.417753 923.412071 510.677888 923.412071z" p-id="4437" fill="#515151"></path><path d="M530.514679 565.373605l149.950174 0 0 94.980211c-14.381545 12.756535-35.488259 24.759917-63.320141 36.008099-27.832905 11.248182-56.361659 16.874319-85.586261 16.874319-33.631982 0-65.406662-7.42204-95.328136-22.267143-29.92045-14.843056-52.708456-37.572734-68.364017-68.190055s-23.484877-68.653613-23.484877-114.113991c0-36.878932 6.494924-71.090105 19.48375-102.633518 7.65433-18.324344 18.380626-35.140335 32.181957-50.447972 13.801331-15.307637 31.949666-27.658943 54.448076-37.052894 22.497387-9.393951 49.170886-14.090926 80.018451-14.090926 25.745361 0 49.170886 4.464685 70.278623 13.395078 21.106714 8.930393 37.34249 20.817118 48.707328 35.662221 11.365862 14.84408 20.874423 35.253922 28.528754 61.232596l60.885695-16.699334c-8.813736-34.32783-21.686928-62.160735-38.618553-83.498716-16.931624-21.339004-40.299845-37.981033-70.104661-49.925063-29.804816-11.945053-63.146179-17.918092-100.025111-17.918092-50.79385 0-95.674013 10.437723-134.641513 31.31317-38.965453 20.874423-68.827575 52.824089-89.586364 95.850022-20.75879 43.023886-31.139208 89.355097-31.139208 138.990564 0 50.099025 10.437723 95.443769 31.31317 136.033209s51.780317 71.610968 92.717681 93.065606c40.937364 21.454638 86.456071 32.181957 136.555096 32.181957 37.110199 0 73.293283-6.667863 108.549252-20.004613 35.253922-13.33675 69.466118-33.225729 102.633518-59.665915L746.567363 505.185804l-216.053708 0.347924L530.513656 565.373605z" p-id="4438" fill="#515151"></path></svg>