<?xml version="1.0" standalone="no"?><!DOCTYPE svg PUBLIC "-//W3C//DTD SVG 1.1//EN" "http://www.w3.org/Graphics/SVG/1.1/DTD/svg11.dtd"><svg t="1542555164120" class="icon" style="" viewBox="0 0 1024 1024" version="1.1" xmlns="http://www.w3.org/2000/svg" p-id="6828" xmlns:xlink="http://www.w3.org/1999/xlink" width="512" height="512"><defs><style type="text/css"></style></defs><path d="M425.984 169.984q34.005 0 59.99 25.984t25.983 59.99-25.984 59.989-59.989 25.984-59.008-25.984-25.003-59.99 25.003-59.989 59.008-25.984z m172.032 172.032q34.005 0 59.008 25.003t25.003 59.008-25.003 59.989T598.016 512t-59.99-25.984-25.983-59.99 25.984-59.007 59.989-25.003zM768 512q34.005 0 59.99 25.984t25.983 59.99-25.984 59.007T768 681.984t-59.99-25.003-25.983-59.008 25.984-59.989T768 512zM598.016 681.984q34.005 0 59.008 25.984t25.003 59.99-25.003 59.989-59.008 25.984-59.99-25.984-25.983-59.99 25.984-59.989 59.989-25.984zM768 342.016q-34.005 0-59.99-25.984t-25.983-59.99 25.984-59.989T768 170.07t59.99 25.984 25.983 59.99-25.984 59.989T768 342.016zM256 681.984q34.005 0 59.99 25.984t25.983 59.99-25.984 59.989T256 853.93t-59.99-25.984-25.983-59.99 25.984-59.989T256 681.984z m0-339.968q34.005 0 59.99 25.003t25.983 59.008-25.984 59.989T256 512t-59.99-25.984-25.983-59.99 25.984-59.007T256 342.016zM425.984 512q34.005 0 59.99 25.984t25.983 59.99-25.984 59.007-59.989 25.003-59.008-25.003-25.003-59.008 25.003-59.989T425.984 512z" fill="#FAAD14" p-id="6829"></path></svg>